<?xml version="1.0" encoding="UTF-8"?>
<svg width="81px" height="60px" viewBox="0 0 81 60" version="1.1" xmlns="http://www.w3.org/2000/svg" xmlns:xlink="http://www.w3.org/1999/xlink">
    <!-- Generator: Sketch 58 (84663) - https://sketch.com -->
    <title>Group</title>
    <desc>Created with Sketch.</desc>
    <defs>
        <linearGradient x1="121.579306%" y1="97.7259228%" x2="-26.0608851%" y2="-17.4709194%" id="linearGradient-1">
            <stop stop-color="#F6DC79" offset="0%"></stop>
            <stop stop-color="#FF9E7B" offset="100%"></stop>
        </linearGradient>
        <linearGradient x1="149.529522%" y1="112.067561%" x2="-101.949351%" y2="-53.6980206%" id="linearGradient-2">
            <stop stop-color="#E9446A" offset="0%"></stop>
            <stop stop-color="#F679A3" offset="100%"></stop>
        </linearGradient>
    </defs>
    <g id="Design" stroke="none" stroke-width="1" fill="none" fill-rule="evenodd">
        <g id="01-Splash" transform="translate(-147.000000, -347.000000)">
            <g id="Group" transform="translate(147.659207, 347.222310)">
                <path d="M38.9925331,57.5893185 C38.9685945,57.5568827 38.9207172,57.4836405 38.8728399,57.399412 L25.4849004,35.3069524 C22.9359566,31.096573 22.1709613,26.1396464 23.3304236,21.3490841 C24.489886,16.5585217 27.4343375,12.5092752 31.6215164,9.94736807 C39.6815492,5.01607618 50.0615477,7.09039961 55.6912892,14.4392068 C59.293923,12.7477046 63.3698002,12.2885676 67.2720572,13.1250327 C66.2962327,10.4900142 64.7623389,8.02194868 62.657756,5.90623039 C54.8242294,-1.96874346 42.1093688,-1.96874346 34.2757771,5.90623039 C26.4315821,-1.96874346 13.7167216,-1.96874346 5.88319498,5.90623039 C-1.96106499,13.7919944 -1.96106499,26.5741294 5.88319498,34.4491032 L28.4352716,57.1205684 C31.3722424,60.0828225 35.9816647,60.3329577 39.2122089,57.8892844 C39.1409786,57.7871379 39.0599905,57.6953235 38.9925331,57.5893185 Z" id="Path" fill="url(#linearGradient-1)"></path>
                <path d="M71.8981732,45.0883894 L49.8789263,58.5562544 C46.7775076,60.4634286 42.7381238,59.4991168 40.7877758,56.4348467 C40.7664393,56.4026725 40.7344344,56.3598389 40.7131628,56.3170052 L27.305513,34.1919791 C22.6480182,26.4991298 25.0779843,16.4598493 32.7304101,11.7777117 C40.3827707,7.09557407 50.3585445,9.53839714 55.0160393,17.2312465 C59.0660263,14.7455244 63.7768626,14.2634338 67.9973473,15.5062621 C71.748947,16.5991401 75.1274815,19.0526881 77.3123369,22.6741218 C81.9698317,30.3669713 79.5505338,40.395527 71.8981732,45.0883894 Z" id="Path" fill="url(#linearGradient-2)"></path>
            </g>
        </g>
    </g>
</svg>