<?xml version="1.0" encoding="UTF-8"?>
<svg width="121px" height="95px" viewBox="0 0 121 95" version="1.1" xmlns="http://www.w3.org/2000/svg" xmlns:xlink="http://www.w3.org/1999/xlink">
    <!-- Generator: Sketch 58 (84663) - https://sketch.com -->
    <title>Group 4</title>
    <desc>Created with Sketch.</desc>
    <defs>
        <linearGradient x1="-23.6178842%" y1="43.3633533%" x2="109.993282%" y2="53.8158182%" id="linearGradient-1">
            <stop stop-color="#DF43B0" offset="0%"></stop>
            <stop stop-color="#8C46B3" offset="100%"></stop>
        </linearGradient>
        <path d="M0.409136691,19.1304348 L0.409136691,5.0173913 L5.37100719,5.0173913 L5.37100719,6.94782609 C6.28503597,5.77391304 7.59079137,4.70434783 9.57553957,4.70434783 C11.4558273,4.70434783 12.8921583,5.53913043 13.6494964,7 C14.8769065,5.59130435 16.3132374,4.70434783 18.3763309,4.70434783 C21.3795683,4.70434783 23.2076259,6.5826087 23.2076259,9.86956522 L23.2076259,19.1304348 L18.2457554,19.1304348 L18.2457554,11.4608696 C18.2457554,9.92173913 17.4884173,9.11304348 16.3132374,9.11304348 C15.1380576,9.11304348 14.276259,9.92173913 14.276259,11.4608696 L14.276259,19.1304348 L9.31438849,19.1304348 L9.31438849,11.4608696 C9.31438849,9.92173913 8.55705036,9.11304348 7.3818705,9.11304348 C6.20669065,9.11304348 5.37100719,9.92173913 5.37100719,11.4608696 L5.37100719,19.1304348 L0.409136691,19.1304348 Z M28.9442446,19.4434783 C26.2543885,19.4434783 24.191295,17.9043478 24.191295,15.0869565 L24.191295,15.0347826 C24.191295,12.1130435 26.4110791,10.6 29.7276978,10.6 C31.0334532,10.6 32.3130935,10.8608696 33.1226619,11.1478261 L33.1226619,10.9130435 C33.1226619,9.45217391 32.2086331,8.6173913 30.3022302,8.6173913 C28.8136691,8.6173913 27.6646043,8.90434783 26.4110791,9.4 L25.3925899,5.90434783 C26.9856115,5.25217391 28.6830935,4.80869565 31.1117986,4.80869565 C33.644964,4.80869565 35.3685612,5.40869565 36.4915108,6.53043478 C37.5622302,7.57391304 38.0061871,9.03478261 38.0061871,11.0173913 L38.0061871,19.1304348 L33.0965468,19.1304348 L33.0965468,17.6695652 C32.1302878,18.7391304 30.7984173,19.4434783 28.9442446,19.4434783 Z M30.7200719,16.3391304 C32.1564029,16.3391304 33.1748921,15.426087 33.1748921,14.0173913 L33.1748921,13.3652174 C32.678705,13.1565217 31.9735971,13 31.2423741,13 C29.8060432,13 28.9703597,13.7043478 28.9703597,14.7478261 L28.9703597,14.8 C28.9703597,15.7652174 29.7015827,16.3391304 30.7200719,16.3391304 Z M45.2835971,19.4173913 C42.3064748,19.4173913 40.5306475,18.1130435 40.5306475,14.7478261 L40.5306475,9.00869565 L38.8592806,9.00869565 L38.8592806,5.0173913 L40.5306475,5.0173913 L40.5306475,1.44347826 L45.492518,1.44347826 L45.492518,5.0173913 L48.7830216,5.0173913 L48.7830216,9.00869565 L45.492518,9.00869565 L45.492518,13.7826087 C45.492518,14.773913 45.9364748,15.1913043 46.8505036,15.1913043 C47.5033813,15.1913043 48.1301439,15.0086957 48.7307914,14.7217391 L48.7307914,18.6086957 C47.8428777,19.1043478 46.6676978,19.4173913 45.2835971,19.4173913 Z M56.87,19.4695652 C52.6132374,19.4695652 49.4794245,16.1304348 49.4794245,12.1391304 L49.4794245,12.0869565 C49.4794245,8.09565217 52.5871223,4.73043478 57.0528058,4.73043478 C59.9515827,4.73043478 61.8841007,5.9826087 63.0853957,7.88695652 L59.7165468,10.3913043 C59.037554,9.45217391 58.2802158,8.90434783 57.0789209,8.90434783 C55.4858993,8.90434783 54.3107194,10.3130435 54.3107194,12.0347826 L54.3107194,12.0869565 C54.3107194,13.9130435 55.4597842,15.2956522 57.1311511,15.2956522 C58.3063309,15.2956522 59.0636691,14.7478261 59.8471223,13.8347826 L63.163741,16.2347826 C61.8579856,18.1652174 59.9776978,19.4695652 56.87,19.4695652 Z M64.0429496,19.1304348 L64.0429496,0.0869565217 L69.0048201,0.0869565217 L69.0048201,6.94782609 C69.9188489,5.77391304 71.2246043,4.70434783 73.2354676,4.70434783 C76.238705,4.70434783 78.0406475,6.68695652 78.0406475,9.89565217 L78.0406475,19.1304348 L73.078777,19.1304348 L73.078777,11.4869565 C73.078777,9.94782609 72.2692086,9.11304348 71.0940288,9.11304348 C69.8927338,9.11304348 69.0048201,9.94782609 69.0048201,11.4869565 L69.0048201,19.1304348 L64.0429496,19.1304348 Z" id="path-2"></path>
        <linearGradient x1="149.529522%" y1="61.4849902%" x2="-101.949351%" y2="30.8117036%" id="linearGradient-3">
            <stop stop-color="#3023AE" offset="0%"></stop>
            <stop stop-color="#C86DD7" offset="100%"></stop>
        </linearGradient>
        <linearGradient x1="-23.6178842%" y1="-33.4250868%" x2="109.993282%" y2="97.9662364%" id="linearGradient-4">
            <stop stop-color="#DF43B0" offset="0%"></stop>
            <stop stop-color="#8C46B3" offset="100%"></stop>
        </linearGradient>
        <linearGradient x1="149.529522%" y1="112.067561%" x2="-101.949351%" y2="-53.6980206%" id="linearGradient-5">
            <stop stop-color="#3023AE" offset="0%"></stop>
            <stop stop-color="#C86DD7" offset="100%"></stop>
        </linearGradient>
    </defs>
    <g id="Design" stroke="none" stroke-width="1" fill="none" fill-rule="evenodd">
        <g id="01-Splash" transform="translate(-127.000000, -347.000000)">
            <g id="Group" transform="translate(127.000000, 347.000000)">
                <g id="logo">
                    <g id="Group-4">
                        <g id="Group-3">
                            <g id="Group-2" transform="translate(0.000000, 75.000000)">
                                <g id="match">
                                    <use fill="#363636" xlink:href="#path-2"></use>
                                    <use fill="url(#linearGradient-1)" xlink:href="#path-2"></use>
                                </g>
                                <path d="M82.466941,19.1304348 L82.466941,5.0173913 L87.4288115,5.0173913 L87.4288115,6.94782609 C88.3428403,5.77391304 89.6485957,4.70434783 91.6333439,4.70434783 C93.5136316,4.70434783 94.9499626,5.53913043 95.7073007,7 C96.9347108,5.59130435 98.3710417,4.70434783 100.434135,4.70434783 C103.437373,4.70434783 105.26543,6.5826087 105.26543,9.86956522 L105.26543,19.1304348 L100.30356,19.1304348 L100.30356,11.4608696 C100.30356,9.92173913 99.5462216,9.11304348 98.3710417,9.11304348 C97.1958619,9.11304348 96.3340633,9.92173913 96.3340633,11.4608696 L96.3340633,19.1304348 L91.3721928,19.1304348 L91.3721928,11.4608696 C91.3721928,9.92173913 90.6148547,9.11304348 89.4396748,9.11304348 C88.264495,9.11304348 87.4288115,9.92173913 87.4288115,11.4608696 L87.4288115,19.1304348 L82.466941,19.1304348 Z M110.66831,18.9168102 C106.678052,16.9727286 105.155036,12.9509478 107.078318,9.01188481 L107.101194,8.96498148 C108.910016,5.26039698 112.993378,3.62178873 116.748915,5.45151097 C121.138198,7.59000059 121.588408,11.7856885 119.768159,15.5137303 C119.630901,15.7951503 119.470507,16.1233467 119.29821,16.4167194 L110.801308,12.276971 C110.477951,13.8318688 111.143808,15.0270109 112.528663,15.7017213 C113.584907,16.2163309 114.624521,16.2294229 115.974961,15.7844395 L117.443546,19.0250669 C115.467422,19.9778958 113.203297,20.1518724 110.66831,18.9168102 Z M111.841359,9.96832395 L116.254114,12.1182485 C116.776696,10.6313901 116.3902,9.34015971 115.169651,8.74549949 C113.996046,8.17371127 112.751518,8.69932037 111.841359,9.96832395 Z" id="me" fill="url(#linearGradient-3)" transform="translate(101.620305, 12.245546) scale(-1, 1) translate(-101.620305, -12.245546) "></path>
                            </g>
                            <g id="icon" transform="translate(20.000000, 0.000000)">
                                <path d="M39.6517399,57.811628 C39.6278013,57.7791922 39.579924,57.70595 39.5320467,57.6217215 L26.1441072,35.529262 C23.5951634,31.3188825 22.830168,26.3619559 23.9896304,21.5713936 C25.1490927,16.7808313 28.0935443,12.7315847 32.2807231,10.1696776 C40.340756,5.23838571 50.7207545,7.31270914 56.350496,14.6615163 C59.9531298,12.9700141 64.0290069,12.5108772 67.931264,13.3473422 C66.9554395,10.7123237 65.4215457,8.24425821 63.3169628,6.12853993 C55.4834362,-1.74643393 42.7685755,-1.74643393 34.9349839,6.12853993 C27.0907889,-1.74643393 14.3759284,-1.74643393 6.54240176,6.12853993 C-1.30185822,14.0143039 -1.30185822,26.796439 6.54240176,34.6714127 L29.0944784,57.3428779 C32.0314491,60.305132 36.6408715,60.5552672 39.8714157,58.111594 C39.8001854,58.0094474 39.7191973,57.917633 39.6517399,57.811628 Z" id="Path" fill="url(#linearGradient-4)"></path>
                                <path d="M72.55738,45.310699 L50.538133,58.7785639 C47.4367143,60.6857382 43.3973306,59.7214263 41.4469826,56.6571563 C41.425646,56.624982 41.3936411,56.5821484 41.3723696,56.5393148 L27.9647198,34.4142886 C23.307225,26.7214393 25.7371911,16.6821588 33.3896169,12.0000212 C41.0419775,7.31788361 51.0177513,9.76070668 55.6752461,17.453556 C59.7252331,14.9678339 64.4360693,14.4857433 68.6565541,15.7285716 C72.4081538,16.8214497 75.7866882,19.2749976 77.9715437,22.8964314 C82.6290384,30.5892808 80.2097406,40.6178366 72.55738,45.310699 Z" id="Path" fill="url(#linearGradient-5)"></path>
                            </g>
                        </g>
                    </g>
                </g>
            </g>
        </g>
    </g>
</svg>