<svg id="Layer_1" enable-background="new 0 0 512.104 512.104" height="512" viewBox="0 0 512.104 512.104" width="512" xmlns="http://www.w3.org/2000/svg"><g><g><path d="m455.221 115.099c-30.718-53.205-80.316-91.263-139.658-107.163-59.343-15.9-121.324-7.74-174.528 22.977-53.204 30.718-91.263 80.315-107.163 139.657-12.093 45.132-10.277 92.185 5.253 136.071 13.961 39.453 38.074 73.994 70.034 100.509l-51.319 51.32c-8.467 8.467-8.467 22.245 0 30.713l16.571 16.571c4.234 4.234 9.795 6.351 15.357 6.351 5.561 0 11.123-2.117 15.357-6.35l63.073-63.074c9.193 3.784 18.68 7.002 28.308 9.582 19.816 5.31 39.923 7.936 59.902 7.936 39.853 0 79.188-10.453 114.626-30.913 53.205-30.718 91.263-80.316 107.163-139.657 15.902-59.343 7.741-121.326-22.976-174.53zm-304.186-66.866c1.494-.863 2.997-1.705 4.506-2.529 1.627 4.04 2.084 7.511 2.522 10.901 1.041 8.039 2.335 18.044 18.426 24.031 2.685.999 5.776 1.687 9.049 2.416 3.935.876 13.15 2.927 14.244 5.254.19.404.248 2.46-1.796 6.574-1.994 1.181-8.862 1.602-13.023 1.857-10.677.655-23.965 1.471-31.13 11.499-4.707 6.587-5.499 15.218-2.423 26.387 2.897 10.518 13.57 12.814 21.363 14.491 5.126 1.103 10.937 2.353 12.616 5.062 4.837 7.808 6.216 14.558 5.079 17.19-.654 1.514-3.19 2.318-5.203 2.727-9.371 1.905-16.241-.511-31.973-11.228-1.851-1.261-4.815-3.934-7.682-6.518-9.933-8.953-21.187-19.104-32.57-16.303-13.055 3.211-16.668 2.748-17.481 2.521-.438-.475-1.291-1.832-1.926-2.843-2.938-4.679-7.11-11.315-17.56-18.013 18.106-30.159 43.656-55.401 74.962-73.476zm-78.533 284.281c2.265-.357 4.906-1.024 7.756-2.602 7.027-3.891 9.37-9.488 10.769-12.832.11-.264.239-.572.362-.854.259-.028.592-.052 1.009-.062 7.43-.19 14.197 5.485 20.724 10.964 6.587 5.53 13.383 11.235 21.83 11.235.685 0 1.381-.037 2.089-.115 2.477-.274 4.839-1.039 7.076-2.287 4.344 17.11 12.52 32.705 23.555 45.821l-14.525 14.525-1.214-1.214c-7.733-7.732-19.88-8.379-28.381-1.991-21.127-17.157-38.286-37.777-51.05-60.588zm18.481 159.098c-.648.646-1.784.646-2.429 0l-16.571-16.57c-.647-.647-.647-1.782 0-2.429l63.378-63.378c.323-.324.769-.485 1.214-.485s.891.162 1.214.485l8.283 8.283c.001.001.002.002.002.003s.002.001.003.002l8.284 8.284c.404.404.489.883.489 1.214s-.085.811-.489 1.214zm110.7-58.669c-9.237-2.475-18.328-5.594-27.114-9.275-.696-4.532-2.774-8.713-6.067-12.005l-1.215-1.215 14.525-14.525c20.084 16.897 45.983 27.094 74.222 27.094 28.398 0 54.429-10.312 74.56-27.38 1.594 4.64 5.23 7.986 10.24 9.328.436.117.673.226.777.282.552 1.025.718 4.519.819 6.629.125 2.62.283 5.81 1.022 9.059-42.926 19.708-92.686 25.161-141.769 12.008zm257.197-148.492c-14.831 55.348-50.583 99.609-96.466 126.581-.002-.034-.004-.074-.005-.108-.32-6.706-.889-18.651-12.477-23.891.028-.221.056-.436.082-.639.431-3.334.969-7.557.148-12.041 13.427-18.867 21.33-41.924 21.33-66.793 0-24.122-7.365-47.231-21.298-66.831-3.2-4.501-9.444-5.555-13.945-2.356-4.501 3.2-5.556 9.443-2.356 13.945 11.513 16.194 17.599 35.297 17.599 55.242 0 52.635-42.822 95.458-95.457 95.458s-95.457-42.822-95.457-95.458 42.822-95.457 95.457-95.457c2.924 0 5.925.141 8.922.418 5.495.502 10.371-3.536 10.88-9.035s-3.536-10.371-9.035-10.88c-3.607-.334-7.229-.503-10.767-.503-63.663 0-115.457 51.794-115.457 115.457 0 1.427.035 2.845.087 4.259-1.472 1.323-3.015 2.907-4.468 4.809-.672.879-1.171 1.364-1.473 1.616-1.95-.73-5.996-4.126-8.743-6.433-8.045-6.754-19.065-15.997-34.067-15.641-13.958.337-17.591 9.018-19.337 13.189-1 2.39-1.167 2.59-2.007 3.056-.505.28-1.052.365-2.958.558-1.234.125-2.749.289-4.468.637-18.416-42.492-22.557-90.827-9.955-137.862 3.385-12.634 7.884-24.776 13.388-36.336 5.723 3.96 8.028 7.62 10.119 10.949 2.546 4.055 6.034 9.607 13.985 11.598 5.957 1.491 13.402.844 26.415-2.315 3.394.988 11.268 8.086 15.123 11.562 3.518 3.17 6.84 6.165 9.813 8.19 12.225 8.328 23.747 15.258 37.938 15.257 2.964 0 6.046-.302 9.274-.958 12.106-2.458 17.332-9.183 19.583-14.393 5.806-13.435-2.567-29.412-6.437-35.657-6.158-9.939-17.285-12.333-25.41-14.081-2.101-.452-5.085-1.094-6.659-1.696-1.156-4.878-.708-7.311-.214-8.003 1.626-2.276 10.675-2.831 16.082-3.163 10.626-.652 23.85-1.464 29.419-12.344 4.78-9.339 5.545-17.601 2.276-24.557-5.269-11.21-18.406-14.134-27.999-16.27-2.47-.55-5.024-1.118-6.421-1.638-4.779-1.778-4.779-1.778-5.566-7.854-.552-4.268-1.317-10.089-4.349-17.085 43.098-18.506 90.836-22.025 136.838-9.699 111.849 29.969 178.462 145.347 148.493 257.196z"/><path d="m256.035 232.102c-41.607 0-75.458 33.85-75.458 75.457s33.85 75.458 75.458 75.458c41.607 0 75.457-33.85 75.457-75.458 0-41.607-33.85-75.457-75.457-75.457zm0 130.914c-30.579 0-55.458-24.878-55.458-55.458s24.878-55.457 55.458-55.457 55.457 24.878 55.457 55.457-24.878 55.458-55.457 55.458z"/><path d="m304.023 225.035c1.508.812 3.131 1.197 4.732 1.197 3.56 0 7.007-1.907 8.813-5.261 2.618-4.862.799-10.927-4.064-13.545l-.006-.003c-4.86-2.618-10.923-.798-13.542 4.065-2.619 4.862-.796 10.928 4.067 13.547z"/></g></g></svg>