<svg viewBox="0 0 512 512" xmlns="http://www.w3.org/2000/svg"><path d="m256 512c-50.351562 0-98.894531-14.546875-140.710938-42.125l-87.988281 27.339844c-3.546875 1.101562-7.414062.148437-10.039062-2.476563-2.625-2.628906-3.578125-6.492187-2.476563-10.039062l27.339844-87.988281c-27.578125-41.816407-42.125-90.359376-42.125-140.710938 0-68.378906 26.628906-132.667969 74.980469-181.019531 48.351562-48.351563 112.640625-74.980469 181.019531-74.980469s132.667969 26.628906 181.019531 74.980469c48.351563 48.351562 74.980469 112.640625 74.980469 181.019531s-26.628906 132.667969-74.980469 181.019531c-48.351562 48.351563-112.640625 74.980469-181.019531 74.980469zm-139.101562-63.097656c1.996093 0 3.976562.601562 5.660156 1.757812 39.371094 27.046875 85.515625 41.339844 133.441406 41.339844 130.132812 0 236-105.867188 236-236s-105.867188-236-236-236-236 105.867188-236 236c0 47.925781 14.292969 94.070312 41.339844 133.441406 1.730468 2.523438 2.214844 5.703125 1.304687 8.628906l-23.121093 74.402344 74.40625-23.117187c.972656-.300781 1.972656-.453125 2.96875-.453125zm0 0"/><path d="m256 401c-1.964844 0-3.925781-.578125-5.621094-1.730469-1.417968-.964843-35.105468-23.964843-69.355468-55.648437-47.371094-43.824219-71.390626-81.574219-71.390626-112.203125 0-53.164063 39.917969-96.417969 88.984376-96.417969 21.023437 0 41.425781 8.171875 57.382812 22.722656 15.957031-14.550781 36.359375-22.722656 57.378906-22.722656 49.070313 0 88.988282 43.253906 88.988282 96.417969 0 30.628906-24.019532 68.378906-71.394532 112.203125-34.246094 31.683594-67.933594 54.683594-69.351562 55.648437-1.695313 1.152344-3.65625 1.730469-5.621094 1.730469zm-57.378906-246c-38.042969 0-68.988282 34.28125-68.988282 76.417969 0 48.097656 86.421876 119.1875 126.367188 147.410156 39.941406-28.238281 126.367188-99.355469 126.367188-147.410156 0-42.136719-30.945313-76.417969-68.984376-76.417969-18.976562 0-36.667968 8.371094-49.816406 23.574219-1.902344 2.199219-4.660156 3.460937-7.5625 3.460937-2.90625 0-5.664062-1.261718-7.566406-3.460937-13.148438-15.203125-30.839844-23.574219-49.816406-23.574219zm0 0"/><path d="m256.625 73c-.007812 0-.015625 0-.023438 0h-.601562c-5.523438 0-10-4.476562-10-10s4.476562-10 10-10h.648438c5.523437.015625 9.988281 4.5 9.976562 10.023438-.011719 5.515624-4.488281 9.976562-10 9.976562zm0 0"/><path d="m392.378906 129.433594c-2.558594 0-5.117187-.972656-7.066406-2.921875-25.699219-25.664063-57.996094-42.949219-93.40625-49.992188-5.417969-1.078125-8.933594-6.34375-7.855469-11.757812 1.078125-5.417969 6.339844-8.9375 11.757813-7.859375 39.296875 7.816406 75.132812 26.992187 103.636718 55.457031 3.90625 3.902344 3.910157 10.234375.007813 14.140625-1.953125 1.957031-4.515625 2.933594-7.074219 2.933594zm0 0"/></svg>