<svg viewBox="-66 0 512 512" xmlns="http://www.w3.org/2000/svg"><path d="m210 160c5.519531 0 10-4.480469 10-10s-4.480469-10-10-10-10 4.480469-10 10 4.480469 10 10 10zm0 0"/><path d="m170 160c5.519531 0 10-4.480469 10-10s-4.480469-10-10-10-10 4.480469-10 10 4.480469 10 10 10zm0 0"/><path d="m90 80c-5.519531 0-10 4.480469-10 10s4.480469 10 10 10 10-4.480469 10-10-4.480469-10-10-10zm0 0"/><path d="m380 190c0-104.765625-85.234375-190-190-190s-190 85.234375-190 190c0 103.890625 84.472656 190 190 190 105.066406 0 190-85.585938 190-190zm-190 170c-31.507812 0-62.050781-8.640625-88.730469-25.046875 7.203125-43.128906 44.328125-74.953125 88.730469-74.953125s81.527344 31.824219 88.730469 74.953125c-26.679688 16.40625-57.222657 25.046875-88.730469 25.046875zm-70-190c0-38.597656 31.402344-70 70-70s70 31.402344 70 70-31.402344 70-70 70-70-31.402344-70-70zm176.5 152.410156c-8.578125-33.195312-32.171875-60.253906-63.1875-73.539062 27.804688-15.332032 46.6875-44.9375 46.6875-78.871094 0-49.625-40.375-90-90-90s-90 40.375-90 90c0 33.933594 18.882812 63.539062 46.6875 78.871094-31.015625 13.285156-54.609375 40.339844-63.1875 73.539062-40.019531-32.195312-63.5-80.636718-63.5-132.410156 0-93.738281 76.261719-170 170-170s170 76.261719 170 170c0 51.773438-23.480469 100.214844-63.5 132.410156zm0 0"/><path d="m191 40.089844c-25.410156-.128906-50.757812 6.15625-72.976562 18.296875-4.84375 2.644531-6.628907 8.722656-3.976563 13.566406 2.644531 4.847656 8.722656 6.632813 13.566406 3.980469 19.828125-10.832032 41.691407-15.980469 63.386719-15.769532 33.375.328126 66.359375 13.351563 90.917969 37.914063 3.90625 3.90625 10.234375 3.910156 14.144531.003906 3.902344-3.90625 3.90625-10.238281 0-14.144531-28.671875-28.675781-66.347656-43.648438-105.0625-43.847656zm0 0"/><path d="m211.207031 191.210938c-5.652343 5.65625-13.183593 8.769531-21.207031 8.769531s-15.554688-3.113281-21.207031-8.769531c-3.902344-3.90625-10.234375-3.90625-14.144531-.003907-3.90625 3.902344-3.90625 10.234375-.003907 14.144531 9.429688 9.433594 21.984375 14.628907 35.355469 14.628907s25.925781-5.195313 35.355469-14.628907c3.902343-3.910156 3.902343-10.238281-.003907-14.144531-3.910156-3.902343-10.238281-3.898437-14.144531.003907zm0 0"/><path d="m310 426h-240c-5.523438 0-10 4.476562-10 10s4.476562 10 10 10h240c5.523438 0 10-4.476562 10-10s-4.476562-10-10-10zm0 0"/><path d="m310 492h-240c-5.523438 0-10 4.476562-10 10s4.476562 10 10 10h240c5.523438 0 10-4.476562 10-10s-4.476562-10-10-10zm0 0"/></svg>